:version 1.10
:name ASF
:units
  mass 1
  length 1
  angle deg
:documentation
  ASF file generated by Kaydara
:root
  axis xyz
  order  tx ty tz rx ry rz
  position 0 0 0
  orientation 0 0 0
:bonedata
  begin
    id 1
    name RightUpLegDummy
    direction -1 2.30186e-007 8.31532e-007
    length 4.46685
    axis 0 0 0 xyz
  end
  begin
    id 2
    name RightUpLeg
    direction -2.30187e-007 -1 1.24343e-010
    length 16.4045
    axis -3.49089 -0.000906625 0.000286804 xyz
    dof rx ry rz
  end
  begin
    id 3
    name RightLeg
    direction -2.30181e-007 -1 -4.17157e-009
    length 17.5097
    axis 3.68512 0.0193738 -0.131023 xyz
    dof rx ry rz
  end
  begin
    id 4
    name RightFoot
    direction 8.31421e-007 -4.51202e-011 1
    length 6.49508
    axis 4.81691e-005 -0.120479 -0.188788 xyz
    dof rx ry rz
  end
  begin
    id 5
    name RightToes
    direction 0.00124746 -0.014064 0.9999
    length 3.85082
    axis 0.000481921 0.542163 -0.142578 xyz
    dof rx ry rz
  end
  begin
    id 6
    name SpineDummy
    direction 0.0717043 0.9409 -0.331007
    length 10.0032
    axis 0 0 0 xyz
  end
  begin
    id 7
    name Spine
    direction 2.30186e-007 1 4.58806e-011
    length 9.84055
    axis -0.001389 0.000121418 2.40972e-006 xyz
    dof rx ry rz
  end
  begin
    id 8
    name Spine1
    direction 0 0 0
    length 0
    axis -0.001389 0.000121451 1.30017e-006 xyz
    dof rx ry rz
  end
  begin
    id 9
    name HEadDummy
    direction -0.00347485 0.950688 -0.310128
    length 8.00997
    axis -0.001389 0.000121451 1.30017e-006 xyz
  end
  begin
    id 10
    name HEad
    direction -0.0222688 0.980941 0.193023
    length 5.12695
    axis -0.001389 0.000121451 1.30017e-006 xyz
    dof rx ry rz
  end
  begin
    id 11
    name LeftShoulder1Dummy
    direction 0.988871 0.146793 -0.0242004
    length 3.5792
    axis -0.001389 0.000121451 1.30017e-006 xyz
  end
  begin
    id 12
    name LeftShoulder1
    direction 0.993832 0.108932 0.020779
    length 4.16823
    axis -0.001389 0.000121451 1.30017e-006 xyz
    dof rx ry rz
  end
  begin
    id 13
    name LeftArm
    direction 1 3.44807e-006 -8.31404e-007
    length 9.91437
    axis -23.1894 0.134784 0.967509 xyz
    dof rx ry rz
  end
  begin
    id 14
    name LeftForeArm
    direction 1 3.44842e-006 -8.31581e-007
    length 9.08575
    axis -9.91835 -0.06569 -0.177793 xyz
    dof rx ry rz
  end
  begin
    id 15
    name LeftHand
    direction 0.992938 -0.0411636 0.11126
    length 5.32135
    axis -0.00960232 -0.00340091 0.185173 xyz
    dof rx ry rz
  end
  begin
    id 16
    name RightShoulderDummy
    direction -0.988871 0.146793 -0.0241962
    length 3.5792
    axis -0.001389 0.000121451 1.30017e-006 xyz
  end
  begin
    id 17
    name RightShoulder
    direction -0.993832 0.108933 0.0207785
    length 4.16823
    axis 0.215806 0.000203643 -0.0068026 xyz
    dof rx ry rz
  end
  begin
    id 18
    name RightArm
    direction -1 3.90912e-006 8.31284e-007
    length 9.91437
    axis -23.2009 -0.134239 -0.964101 xyz
    dof rx ry rz
  end
  begin
    id 19
    name RightForeArm
    direction -1 3.90882e-006 8.31502e-007
    length 9.08575
    axis -9.92322 0.0658061 0.178867 xyz
    dof rx ry rz
  end
  begin
    id 20
    name RightHand
    direction -0.992843 -0.0414603 0.112003
    length 5.28593
    axis -0.00960638 0.00330671 -0.185228 xyz
    dof rx ry rz
  end
  begin
    id 21
    name LeftUpLegDummy
    direction 1 -2.30186e-007 -8.31532e-007
    length 4.46685
    axis 0 0 0 xyz
  end
  begin
    id 22
    name LeftUpLeg
    direction -2.30187e-007 -1 6.00931e-010
    length 16.4045
    axis -3.48766 0.00143442 -0.000524262 xyz
    dof rx ry rz
  end
  begin
    id 23
    name LeftLeg
    direction -2.30187e-007 -1 1.6669e-009
    length 17.5097
    axis 3.68178 -0.00654042 -0.000285133 xyz
    dof rx ry rz
  end
  begin
    id 24
    name LeftFoot
    direction 8.31532e-007 -4.54478e-011 1
    length 6.49508
    axis 1.87233e-006 4.66016e-005 -8.6538e-006 xyz
    dof rx ry rz
  end
  begin
    id 25
    name LeftToes
    direction 0.00818058 -0.00485161 0.999955
    length 3.85048
    axis 1.06247e-005 4.65869e-005 -8.65513e-006 xyz
    dof rx ry rz
  end
:hierarchy
  begin
    root RightUpLegDummy SpineDummy LeftUpLegDummy
    RightUpLegDummy RightUpLeg
    RightUpLeg RightLeg
    RightLeg RightFoot
    RightFoot RightToes
    SpineDummy Spine
    Spine Spine1
    Spine1 HEadDummy LeftShoulder1Dummy RightShoulderDummy
    HEadDummy HEad
    LeftShoulder1Dummy LeftShoulder1
    LeftShoulder1 LeftArm
    LeftArm LeftForeArm
    LeftForeArm LeftHand
    RightShoulderDummy RightShoulder
    RightShoulder RightArm
    RightArm RightForeArm
    RightForeArm RightHand
    LeftUpLegDummy LeftUpLeg
    LeftUpLeg LeftLeg
    LeftLeg LeftFoot
    LeftFoot LeftToes
  end

:SAMPLES-PER-SECOND 30
:FULLY-SPECIFIED
:DEGREES
49
root  4.95737 32.8517 48.8929 -49.1745 82.4411 -59.1611
RightUpLeg  -31.5346 9.77277 1.50978
RightLeg  17.8495 4.16711 1.05063
RightFoot  2.15374 0.00552565 0.0835606
RightToes  -41.585 -0.231267 -0.323899
Spine  7.85402 -4.44021 2.29862
Spine1  15.4415 -8.70509 2.16274
HEad  29.6018 23.1418 -5.3687
LeftShoulder1  0 -2.42657e-020 -4.95415e-022
LeftArm  -23.7533 9.07652 -82.295
LeftForeArm  56.4716 -18.8061 -3.39899
LeftHand  0.589787 -12.24 -5.86967
RightShoulder  0 2.42657e-020 1.07489e-018
RightArm  -38.3608 -22.2809 74.934
RightForeArm  97.6773 75.1336 137.938
RightHand  2.93318 17.5543 19.207
LeftUpLeg  -11.4704 -0.238187 -0.639928
LeftLeg  49.7058 5.31687 5.47836
LeftFoot  0.509168 -0.00035433 0.0797355
LeftToes  -26.892 9.37529e-007 1.1992e-007
50
root  6.9848 32.0438 49.265 -49.5853 80.8768 -57.4219
RightUpLeg  -32.3715 8.10069 4.45046
RightLeg  29.1925 6.95632 3.30076
RightFoot  3.48356 -0.0003094 0.387646
RightToes  -45.2214 -0.261479 -0.342677
Spine  8.03465 -3.86636 2.492
Spine1  15.6953 -7.40671 2.08123
HEad  31.8747 24.2976 -4.97637
LeftShoulder1  0 -2.42657e-020 -4.95415e-022
LeftArm  -24.2844 7.88244 -82.2232
LeftForeArm  56.1109 -18.8699 -3.41228
LeftHand  0.551418 -11.8491 -5.68317
RightShoulder  0 2.42657e-020 1.07489e-018
RightArm  -37.4107 -16.3262 72.5308
RightForeArm  106.118 73.5291 142.95
RightHand  2.85982 18.2584 18.0351
LeftUpLeg  -12.0626 -1.48953 0.403122
LeftLeg  60.6496 3.79674 5.80427
LeftFoot  3.81776 -0.0178629 0.535949
LeftToes  -24.1306 9.37529e-007 1.1992e-007
51
root  8.99109 31.1629 49.5365 -50.6555 79.7265 -55.8322
RightUpLeg  -32.8732 3.64509 7.05035
RightLeg  41.468 9.59386 7.34109
RightFoot  -1.18763 -0.00712774 -0.310339
RightToes  -46.6494 -0.273659 -0.349521
Spine  8.67617 -3.12198 2.46571
Spine1  16.8414 -5.63899 1.39045
HEad  32.9909 25.2802 -4.31734
LeftShoulder1  0 -2.42657e-020 -4.95415e-022
LeftArm  -26.892 5.83545 -82.4519
LeftForeArm  56.4895 -18.5264 -3.34405
LeftHand  0.467004 -11.1123 -5.17108
RightShoulder  0 2.42657e-020 1.07489e-018
RightArm  -36.7921 -9.08052 71.3123
RightForeArm  112.919 72.5363 145.451
RightHand  2.61724 18.6051 16.2539
LeftUpLeg  -13.3813 -1.57021 1.06781
LeftLeg  71.9585 2.28398 5.69475
LeftFoot  6.64886 -0.0511535 0.880603
LeftToes  -19.1106 9.37529e-007 1.1992e-007
52
root  10.9825 30.5347 49.7319 -62.1534 79.6688 -66.0085
RightUpLeg  -30.8754 0.831172 8.35744
RightLeg  47.3566 9.19021 8.63654
RightFoot  -7.49332 -0.135675 -1.69423
RightToes  -47.3611 -0.279793 -0.352818
Spine  8.91261 -2.71107 2.81382
Spine1  17.2366 -4.68356 1.70335
HEad  34.2086 25.4539 -4.28064
LeftShoulder1  0 -2.42657e-020 -4.95415e-022
LeftArm  -27.9766 3.91856 -83.7725
LeftForeArm  57.2946 -17.8186 -3.20426
LeftHand  0.256272 -10.0466 -3.28713
RightShoulder  0 2.42657e-020 1.07489e-018
RightArm  -35.7676 -4.16325 70.4622
RightForeArm  122.903 70.2057 150.205
RightHand  1.93745 19.5338 11.5942
LeftUpLeg  -16.6274 -2.27509 2.73083
LeftLeg  81.0093 1.23196 5.4313
LeftFoot  0.97522 -0.00249094 0.292678
LeftToes  -19.1472 9.37529e-007 1.1992e-007
53
root  12.7842 30.3743 49.7923 -82.2557 79.615 -86.0202
RightUpLeg  -27.8105 -2.67077 9.18785
RightLeg  48.5914 8.88875 8.71938
RightFoot  -11.5335 -0.293199 -2.52524
RightToes  -46.3479 -0.271074 -0.348102
Spine  8.646 -2.25803 3.2416
Spine1  16.7452 -3.73326 2.53037
HEad  35.2301 25.2676 -4.84413
LeftShoulder1  0 -2.42657e-020 -4.95415e-022
LeftArm  -28.3457 3.3279 -86.1252
LeftForeArm  58.1987 -18.3994 -3.31557
LeftHand  0.0861023 -9.41365 -1.41672
RightShoulder  0 2.42657e-020 1.07489e-018
RightArm  -34.8467 -2.60338 70.5572
RightForeArm  137.056 66.5571 155.549
RightHand  1.39203 21.9642 7.53647
LeftUpLeg  -22.4128 -4.15833 4.51438
LeftLeg  86.6469 0.671193 5.36713
LeftFoot  -5.01059 -0.0121343 -0.27734
LeftToes  -10.6977 9.37529e-007 1.1992e-007
54
root  14.5616 30.7422 49.7216 -100.619 79.3125 -104.918
RightUpLeg  -22.9835 -4.98592 9.02847
RightLeg  44.9224 8.42494 7.29024
RightFoot  -13.219 -0.339611 -2.55288
RightToes  -44.8801 -0.258593 -0.340997
Spine  8.19621 -1.58197 3.19339
Spine1  15.9093 -2.3616 2.78174
HEad  35.4615 24.3429 -5.39866
LeftShoulder1  0 -2.42657e-020 -4.95415e-022
LeftArm  -27.2465 4.4328 -88.1126
LeftForeArm  53.9081 -20.2734 -3.69541
LeftHand  0.0487455 -9.67766 -0.946436
RightShoulder  0 2.42657e-020 1.07489e-018
RightArm  -29.7295 -4.01429 70.9427
RightForeArm  155.244 62.8861 159.397
RightHand  -0.0583663 24.4341 0.100471
LeftUpLeg  -28.3834 -4.90669 4.97881
LeftLeg  86.4096 0.88527 6.84989
LeftFoot  -8.71245 -0.0650747 -0.854246
LeftToes  -6.46045 9.37529e-007 1.1992e-007
55
root  16.409 31.5104 49.565 -115.754 78.8733 -119.703
RightUpLeg  -15.3688 -4.40747 8.53312
RightLeg  37.2389 6.0657 3.99246
RightFoot  -12.2189 -0.201881 -1.50847
RightToes  -41.7578 -0.232675 -0.324835
Spine  8.06406 -0.390078 2.45882
Spine1  15.6512 0.145981 1.74232
HEad  36.1209 21.8314 -4.31849
LeftShoulder1  0 -2.42657e-020 -4.95415e-022
LeftArm  -25.9498 5.93809 -88.8946
LeftForeArm  50.1103 -22.1518 -4.08395
LeftHand  0.0949719 -9.47867 -1.51656
RightShoulder  0 2.42657e-020 1.07489e-018
RightArm  -20.8423 -6.66687 72.0059
RightForeArm  171.969 63.6434 158.676
RightHand  -2.50953 27.207 -9.97604
LeftUpLeg  -31.6221 -4.38865 4.24508
LeftLeg  80.743 1.74065 7.50188
LeftFoot  -11.0631 -0.12412 -1.28159
LeftToes  -4.17835 9.37529e-007 1.1992e-007
56
root  18.2463 32.3769 49.238 -132.953 77.9622 -137.219
RightUpLeg  -8.41663 -3.57594 7.58
RightLeg  29.3011 2.23256 1.06208
RightFoot  -8.3515 -0.0500919 -0.308566
RightToes  -40.9762 -0.226328 -0.32057
Spine  7.5674 0.427945 1.35172
Spine1  14.5976 1.82902 0.227751
HEad  37.7331 18.628 -2.5419
LeftShoulder1  0 -2.42657e-020 -4.95415e-022
LeftArm  -26.1184 8.89659 -88.9489
LeftForeArm  48.006 -25.9486 -4.89298
LeftHand  0.250616 -9.60286 -3.35531
RightShoulder  0 2.42657e-020 1.07489e-018
RightArm  -10.5606 -7.82981 74.4013
RightForeArm  179.71 72.0121 146.532
RightHand  -5.77035 27.9151 -22.5605
LeftUpLeg  -33.6484 -4.48383 1.91708
LeftLeg  70.4721 2.86296 6.62788
LeftFoot  -11.0337 -0.11459 -1.18637
LeftToes  -2.47272 9.37529e-007 1.1992e-007
57
root  20.0671 33.1522 48.8073 -146.281 76.1358 -151.277
RightUpLeg  -3.40876 -4.19737 6.4143
RightLeg  24.067 -0.297198 -0.114158
RightFoot  -2.3567 -0.00610024 0.0809996
RightToes  -44.4831 -0.25525 -0.339021
Spine  7.01926 1.04136 0.292734
Spine1  13.4479 3.02163 -1.17029
HEad  39.3801 15.3398 -0.808634
LeftShoulder1  0 -2.42657e-020 -4.95415e-022
LeftArm  -26.0285 11.1423 -88.4603
LeftForeArm  47.7595 -27.0847 -5.14464
LeftHand  0.281713 -9.7401 -3.67799
RightShoulder  0 2.42657e-020 1.07489e-018
RightArm  -4.283 -4.90832 78.4573
RightForeArm  112.541 78.6553 62.0987
RightHand  -8.10246 26.7785 -32.7769
LeftUpLeg  -33.9404 -4.09568 -1.16711
LeftLeg  56.6611 3.36858 4.44603
LeftFoot  -8.51852 -0.04817 -0.646793
LeftToes  -4.58307 9.37529e-007 1.1992e-007
58
root  21.8607 33.692 48.3336 -154.194 73.9214 -160.206
RightUpLeg  -0.656114 -5.94647 5.00067
RightLeg  22.3891 0.0804502 0.0245824
RightFoot  3.4468 0.00860106 0.0916687
RightToes  -49.8494 -0.301548 -0.363741
Spine  6.48 1.65216 -0.460756
Spine1  12.3588 4.22568 -2.18903
HEad  40.4869 12.554 0.358211
LeftShoulder1  0 -2.42657e-020 -4.95415e-022
LeftArm  -27.0087 12.1132 -88.2944
LeftForeArm  49.0045 -25.3876 -4.76907
LeftHand  0.204878 -10.1866 -2.67009
RightShoulder  0 2.42657e-020 1.07489e-018
RightArm  -2.97092 2.3682 83.5383
RightForeArm  74.8965 56.2015 15.2172
RightHand  -7.77167 27.8299 -30.2997
LeftUpLeg  -32.746 -1.88967 -4.92594
LeftLeg  40.343 3.56878 2.64733
LeftFoot  -1.49328 0.000870984 0.0668248
LeftToes  -11.8668 9.37529e-007 1.1992e-007
59
root  23.703 33.7597 47.9559 -155.114 71.0517 -162.064
RightUpLeg  -0.617311 -5.78466 5.69645
RightLeg  25.7416 0.443684 0.174799
RightFoot  6.88879 0.00697396 0.261654
RightToes  -52.0057 -0.32077 -0.372435
Spine  6.22178 2.85279 -0.496279
Spine1  11.7451 7.26989 -2.80837
HEad  41.1044 10.4987 0.687566
LeftShoulder1  0 -2.42657e-020 -4.95415e-022
LeftArm  -28.6309 12.0575 -88.6954
LeftForeArm  50.4368 -24.7312 -4.62503
LeftHand  0.190094 -10.1835 -2.50483
RightShoulder  0 2.42657e-020 1.07489e-018
RightArm  -4.75977 10.2045 86.8099
RightForeArm  65.8988 34.144 6.80296
RightHand  -5.22956 28.0501 -20.3556
LeftUpLeg  -32.2378 4.39129 -8.92936
LeftLeg  27.4326 1.39177 0.608983
LeftFoot  4.83982 -0.0190214 0.450087
LeftToes  -20.8084 9.37529e-007 1.1992e-007
60
root  25.6057 33.3328 47.4763 -156.569 67.8976 -163.615
RightUpLeg  -1.68721 -4.45745 6.15928
RightLeg  33.4571 2.54942 1.44511
RightFoot  7.78006 -0.02813 0.791163
RightToes  -52.3851 -0.324184 -0.37389
Spine  6.49118 4.17074 -0.336788
Spine1  12.0115 10.8083 -3.54396
HEad  41.2614 8.63277 0.704513
LeftShoulder1  0 -2.42657e-020 -4.95415e-022
LeftArm  -30.4917 11.3238 -89.2232
LeftForeArm  51.9971 -25.3005 -4.74476
LeftHand  0.205922 -9.983 -2.72924
RightShoulder  0 2.42657e-020 1.07489e-018
RightArm  -14.1695 16.0246 88.6987
RightForeArm  65.9317 23.5461 4.34087
RightHand  -0.833167 25.9027 -3.2525
LeftUpLeg  -32.9424 13.0419 -14.7265
LeftLeg  23.0453 -2.63437 -0.928169
LeftFoot  7.91198 -0.0114608 0.165717
LeftToes  -24.3184 9.37529e-007 1.1992e-007
61
root  27.5431 32.4975 46.8148 -160.92 64.1792 -166.913
RightUpLeg  -2.69023 -3.14057 5.28995
RightLeg  44.3764 6.85619 5.83224
RightFoot  7.15068 -0.0823949 1.69601
RightToes  -47.2308 -0.278667 -0.35222
Spine  6.95254 4.83494 -0.225864
Spine1  12.6334 12.788 -4.12737
HEad  41.8382 6.52985 1.07224
LeftShoulder1  0 -2.42657e-020 -4.95415e-022
LeftArm  -30.731 10.7444 -89.1983
LeftForeArm  52.387 -25.7473 -4.8411
LeftHand  0.207386 -10.1755 -2.70081
RightShoulder  0 2.42657e-020 1.07489e-018
RightArm  -33.466 21.2983 88.8974
RightForeArm  74.2586 12.3987 2.1395
RightHand  1.54309 22.4528 8.13521
LeftUpLeg  -32.7262 17.4214 -18.8455
LeftLeg  26.9055 -1.50472 -0.648834
LeftFoot  3.40484 -0.0163867 0.551326
LeftToes  7.13929 9.37529e-007 1.1992e-007
